<svg xmlns="http://www.w3.org/2000/svg" xmlns:v="https://vecta.io/nano"><path d="M16 0C7.163 0 0 7.163 0 16s7.163 16 16 16 16-7.163 16-16h0c0-8.837-7.163-16-16-16h0zm0 30.4C8.047 30.4 1.6 23.953 1.6 16S8.047 1.6 16 1.6 30.4 8.047 30.4 16h0c0 7.953-6.447 14.4-14.4 14.4h0zm12.48-12.28v1.4h-4.55v-7h1.6v5.64zm-21 1.4a3.53 3.53 0 0 0 3.404-2.605l.006-.025 4 3.11 4-3.11v2.63h4.54v-1.4h-2.98v-5.64h-1.6v2.63L15 18.1l-.86-.67L16 16l2-1.56-1.14-.88-3.82 3-.85-.67 3.82-3-1.15-.89-4 3.11c-.412-1.525-1.782-2.628-3.41-2.63H4.61v7zm-1.26-1.4v-4.24h1.25a2 2 0 0 1 1.924 1.999c0 .043-.001.085-.004.127V16a2.22 2.22 0 0 1 .004.121 2 2 0 0 1-1.92 1.998H7.47z"/></svg>