<svg id="dds__icon--brand-delltechnologiesvert" viewbox="0 0 32 32" xmlns="http://www.w3.org/2000/svg"><title>dds__icon--brand-delltechnologiesvert</title><path d="M32,15.05v1.88H25.91V7.48h2.14v7.57ZM3.83,16.93a4.72,4.72,0,0,0,4.56-3.5v0l5.33,4.18,5.34-4.17v3.53h6.11V15.05H21.23V7.48H19.08V11L14,15l-1.14-.9,5.11-4L16.41,8.93l-5.12,4L10.14,12l5.12-4L13.74,6.85,8.41,11A4.74,4.74,0,0,0,3.84,7.49H0v9.44ZM2.16,15.05V9.36H3.85a2.72,2.72,0,0,1,2.57,2.85,2.71,2.71,0,0,1-2.57,2.84ZM32,23c0-.56-.31-.81-.94-.94s-1-.19-1-.63.25-.5.69-.5.75.25.75.57l.06.06h.25l.07-.06c0-.63-.5-.88-1.13-.88s-1.07.38-1.07.81.38.76,1,.88.94.19.94.69c0,.32-.19.57-.82.57S30,23.27,30,22.9l-.06-.06h-.26l-.06.06c0,.56.43,1,1.19,1S32,23.52,32,23Zm-2.71-.63.06-.06v-.19a1.39,1.39,0,1,0-2.76,0v.12A1.44,1.44,0,0,0,28,23.9h.12A1.15,1.15,0,0,0,29.29,23h0l-.06-.06H29l-.06.06a.83.83,0,0,1-.81.63h-.07A1.09,1.09,0,0,1,27,22.49v0h0l.07-.06Zm-.37-.31H27L27,22a1,1,0,0,1,2,0h0Zm-2.77,1.69v-3l-.06-.06h-.25l-.06.06v3l.06.06h.25Zm0-3.64v-.37l-.06-.06h-.25l-.06.06v.38l.06.06h.25Zm-2.37,3.46c-.63,0-1-.44-1-1.34s.38-1.33,1-1.33,1,.44,1,1.33S24.4,23.59,23.78,23.59Zm1-.19c0,.82-.19,1.44-.94,1.44-.57,0-.75-.25-.82-.56L23,24.22h-.25l-.06.06c.06.5.44.88,1.19.88s1.33-.51,1.33-1.76V20.76l-.06-.06h-.19l-.06.06-.06.38h-.07a1,1,0,0,0-.89-.5h-.11c-.88,0-1.33.69-1.33,1.63s.44,1.63,1.33,1.63h.11a1,1,0,0,0,.89-.5h.05ZM20.7,21c.63,0,1.07.5,1.07,1.34s-.44,1.33-1.07,1.33-1.06-.5-1.06-1.33S20.08,21,20.7,21Zm0,2.95a1.44,1.44,0,0,0,1.45-1.63,1.46,1.46,0,1,0-2.89,0A1.44,1.44,0,0,0,20.7,23.9Zm-1.88-.12V19.51l-.06-.06h-.25l-.06.06v4.27l.06.06h.25ZM16.56,21c.63,0,1.07.5,1.07,1.34s-.44,1.33-1.07,1.33-1.06-.5-1.06-1.33S15.94,21,16.56,21Zm0,2.95A1.44,1.44,0,0,0,18,22.27a1.46,1.46,0,1,0-2.89,0A1.44,1.44,0,0,0,16.56,23.9Zm-1.82-.12V21.89a1.09,1.09,0,0,0-1.13-1.25h0a1.12,1.12,0,0,0-.94.5h-.07l-.06-.38-.06-.06h-.2l-.06.06v3l.06.07h.25l.07-.07V22.08c0-.69.31-1.13,1-1.13.5,0,.81.32.81.94v1.89l.07.06h.24Zm-3.2,0V21.89a1.09,1.09,0,0,0-1.13-1.25h-.05a1.13,1.13,0,0,0-.94.5H9.33V19.51l-.06-.06H9L9,19.51v4.27l.06.06h.25l.07-.06V22.09c0-.7.31-1.13,1-1.13.5,0,.81.31.81.94v1.88l.07.06h.25ZM6.15,22.27c0-.88.44-1.33,1.06-1.33H7.3a.86.86,0,0,1,.85.76h0l.07.06h.25l.06-.06a1.21,1.21,0,0,0-1.32-1.07c-.81,0-1.44.5-1.44,1.63s.63,1.64,1.44,1.64a1.21,1.21,0,0,0,1.32-1.07l-.06-.06H8.22l-.07.06a.85.85,0,0,1-.85.75H7.21c-.62,0-1.06-.44-1.06-1.33Zm-.69.09.06-.06v-.19a1.35,1.35,0,0,0-1.38-1.5,1.38,1.38,0,0,0-1.38,1.53v.13A1.43,1.43,0,0,0,4.2,23.9h.12A1.18,1.18,0,0,0,5.46,23h0l-.07-.06H5.14L5.08,23a.83.83,0,0,1-.81.63H4.2A1.1,1.1,0,0,1,3.13,22.5v0h0l.07-.06Zm-.38-.31H3.2L3.13,22a1,1,0,0,1,2,0h0ZM3.39,19.66v-.18l-.06,0H.06L0,19.51v.19l.06.06H1.44l.07.06v4l.06.06h.25l.06-.06v-4L2,19.76H3.33Z"/></svg>