<svg id="dds__icon--datastore" viewbox="0 0 32 32" xmlns="http://www.w3.org/2000/svg"><title>dds__icon--datastore</title><path d="M16 0c-7.28 0-13 3.020-13 6.9 0 0.18 0 18.4 0 18.58 0.36 3.72 5.94 6.52 13 6.52s12.58-2.78 12.98-6.46c0-0.22 0-18.46 0-18.64 0.020-3.88-5.7-6.9-12.98-6.9zM16 2.14c6.4 0 10.86 2.5 10.86 4.76s-4.46 4.76-10.86 4.76-10.86-2.52-10.86-4.76 4.46-4.76 10.86-4.76zM16 29.86c-6.24 0-10.64-2.36-10.86-4.52v-14.62c2.811 1.94 6.291 3.099 10.042 3.099 0.288 0 0.574-0.007 0.858-0.020l-0.040 0.002c0.244 0.012 0.53 0.019 0.818 0.019 3.751 0 7.231-1.159 10.102-3.138l-0.060 0.039v14.58c-0.24 2.2-4.66 4.56-10.86 4.56z"/></svg>