<?xml version="1.0" encoding="UTF-8"?> <svg xmlns="http://www.w3.org/2000/svg" width="497.5" height="102.5" viewBox="0 0 497.5 102.5"><g id="Layer_2" data-name="Layer 2"><g id="Layer_2-2" data-name="Layer 2"><g><g><path d="M0,10.1H36.6L47.2,40,57.8,10.1H94.1V88.4H70.9V41.9L55.4,88.4H38.7L23.3,41.9V88.4H0Z" style="fill: #0033a1"></path><path d="M123,66.5a29.6,29.6,0,0,1-11.8,2.4c-5.2,0-9.8-2.1-12.3-5.6-1.2-1.6-1.6-3.4-1.6-6.7,0-6.6,1.7-8.7,9.8-11.3l15.5-5.1V38.4c0-1.9-.9-2.8-2.7-2.8s-2.7.7-2.7,4.1H97.7V35.2c0-5.3,4-7.9,12.3-7.9h19.9c5.4,0,7.6.5,9.9,2.1s2.9,3.4,2.9,8.3V68.5H123Zm-.4-15.8c-4.7,1.8-5.3,2.5-5.3,6.4,0,1.9.9,2.9,2.5,2.9s2.8-1.1,2.8-3.5Z" style="fill: #0033a1"></path><path d="M151.5,46.7l-6.7-19.4h19.8l3.4,15,3.1-15h20.2l-6.9,19.4,8.1,21.8H172.1L168,51.8l-4.1,16.7H143.3Z" style="fill: #0033a1"></path><path d="M190,27.3h19.5l3.6,14.9,3.7-14.9h15.8l3.6,14.9,3.6-14.9h19.4l-12,41.2H229.1l-4.5-15.9-4.4,15.9H201.8Z" style="fill: #0033a1"></path><path d="M303.3,59.3c0,3.8-.7,5.4-2.9,6.9s-5.2,2.3-10.9,2.3H270.9c-5.9,0-8.3-.5-10.5-2.4s-2.4-3.3-2.4-7.5V36.5c0-6.5,3.5-9.2,11.9-9.2h20.7c9.2,0,12.7,2.6,12.7,9.4V48.9H278v8.4c0,2,.8,3.1,2.6,3.1s2.6-1,2.6-3.2v-3h20.1Zm-20.1-18V38.1c0-1.8-.9-2.7-2.5-2.7a2.4,2.4,0,0,0-2.7,2.7v3.2Z" style="fill: #0033a1"></path><path d="M305.2,16.3h19.4V68.5H305.2Z" style="fill: #0033a1"></path><path d="M327.2,16.3h19.3V68.5H327.2Z" style="fill: #0033a1"></path><path d="M98.4,75.8V73.1h15.1v2.7h-5.8V88.3H104V75.8Z" style="fill: #9e9e9e"></path><path d="M133.4,75.8h-4.8c-2.5,0-3.5.2-4.3,1.1s-.6,1-.7,2.5h9.8v2.7h-9.8c.2,2.6,1.6,3.5,5.1,3.5h4.7v2.7h-4.8c-3.8,0-5.5-.4-6.9-1.7a7.9,7.9,0,0,1-2.4-6,7.3,7.3,0,0,1,3-6.3c1.3-.9,2.5-1.2,4.8-1.2h6.3Z" style="fill: #9e9e9e"></path><path d="M154.6,88.3h-6.1c-3.1,0-4.5-.3-5.9-1.5s-2.3-3.3-2.3-6.1,1.4-5.9,3.9-6.9a11,11,0,0,1,4.4-.7h6v2.7h-5.5a5.1,5.1,0,0,0-3.8,1.2,5.8,5.8,0,0,0-.9,3.4c0,2.3.6,3.9,1.7,4.5a5.1,5.1,0,0,0,3.1.7h5.4Z" style="fill: #9e9e9e"></path><path d="M176.2,88.3h-3.7V82h-6.8v6.3H162V73.1h3.7v6.2h6.8V73.1h3.7Z" style="fill: #9e9e9e"></path><path d="M188.2,88.3h-3.5V73.1h4.7l7,11.3V73.1H200V88.3h-4.6l-7.2-11.2Z" style="fill: #9e9e9e"></path><path d="M223.1,75.3a8.5,8.5,0,0,1,1.7,5.6,7.2,7.2,0,0,1-2.7,6.1,10.2,10.2,0,0,1-5.7,1.4c-3.4,0-6-.9-7.4-2.7a7.5,7.5,0,0,1-1.5-4.9c0-3,.9-5.2,2.6-6.4a11.6,11.6,0,0,1,6-1.4C219.3,73,221.8,73.8,223.1,75.3Zm-10.7,1.8a6.4,6.4,0,0,0-.8,3.6c0,3.5,1.4,5.2,4.6,5.2s4.5-1.7,4.5-5.2-1.4-5.2-4.5-5.2A4.5,4.5,0,0,0,212.4,77.1Z" style="fill: #9e9e9e"></path><path d="M235.9,73.1v8.5c.1,2.7.2,2.8.8,3.3s1.5.7,3.9.7h3.6v2.7h-4a17.5,17.5,0,0,1-4-.2,4.7,4.7,0,0,1-3.6-3,9.2,9.2,0,0,1-.5-3.5V73.1Z" style="fill: #9e9e9e"></path><path d="M265.5,75.3a9.1,9.1,0,0,1,1.6,5.6c0,2.7-.9,4.9-2.7,6.1a10.1,10.1,0,0,1-5.6,1.4c-3.4,0-6.1-.9-7.4-2.7a7.1,7.1,0,0,1-1.6-4.9c0-3,1-5.2,2.7-6.4a11.3,11.3,0,0,1,6-1.4C261.6,73,264.1,73.8,265.5,75.3Zm-10.7,1.8a5.6,5.6,0,0,0-.9,3.6c0,3.5,1.5,5.2,4.6,5.2s4.5-1.7,4.5-5.2-1.4-5.2-4.5-5.2A4.3,4.3,0,0,0,254.8,77.1Z" style="fill: #9e9e9e"></path><path d="M289.7,79.3v9h-7.8c-2.7,0-4.1-.3-5.4-1.2s-2.8-3.4-2.8-6.3,1-5.2,2.8-6.4,3-1.3,5.5-1.3h7.7v2.7h-7.2c-3.4,0-4.7,1.3-4.7,4.7s.5,3.5,1.3,4.2a5.3,5.3,0,0,0,3.5.9H286V82h-4.9V79.3Z" style="fill: #9e9e9e"></path><path d="M297.7,73.1h3.8V88.3h-3.8Z" style="fill: #9e9e9e"></path><path d="M323.1,75.8h-4.9c-2.5,0-3.5.2-4.2,1.1s-.7,1-.8,2.5h9.9v2.7h-9.9c.3,2.6,1.6,3.5,5.2,3.5h4.7v2.7h-4.9c-3.7,0-5.5-.4-6.9-1.7a7.8,7.8,0,0,1-2.3-6,7.3,7.3,0,0,1,3-6.3c1.2-.9,2.4-1.2,4.8-1.2h6.3Z" style="fill: #9e9e9e"></path><path d="M330.8,85.6h8a4.9,4.9,0,0,0,2.6-.4,1.5,1.5,0,0,0,.9-1.4,1.7,1.7,0,0,0-1.1-1.6,4.7,4.7,0,0,0-1.9-.3H336c-2.1,0-3.4-.3-4.3-1a4,4,0,0,1-1.7-3.3,4.2,4.2,0,0,1,3.1-4.2,10.7,10.7,0,0,1,3.7-.3h8.7v2.7H335.3a1.6,1.6,0,0,0-1.2,1.6,1.6,1.6,0,0,0,1,1.5,6.2,6.2,0,0,0,2.2.2h2.9c2.5,0,3.9.4,5,1.3a5,5,0,0,1,1.3,3.3,4.3,4.3,0,0,1-2.3,3.9c-.8.5-1.9.6-4.5.6h-8.9Z" style="fill: #9e9e9e"></path><path d="M356.2,20.7a3.9,3.9,0,0,1-4,3.9,3.9,3.9,0,1,1,.1-7.8A3.8,3.8,0,0,1,356.2,20.7Zm-7,0a3.1,3.1,0,0,0,3.1,3.1,3,3,0,0,0,2.9-3.1,3,3,0,0,0-3-3.1A3,3,0,0,0,349.2,20.7Zm2.4,2h-.9V18.8h1.5a2.2,2.2,0,0,1,1.4.3,1,1,0,0,1,.4.8,1.2,1.2,0,0,1-.8,1h0c.3.1.5.4.6,1l.3.9h-.9a3,3,0,0,1-.3-.9.7.7,0,0,0-.8-.6h-.5Zm.1-2.2h.4c.5,0,.9-.1.9-.6s-.3-.5-.8-.5h-.5Z" style="fill: #0033a1"></path></g><line x1="381.9" y1="102.5" x2="381.9" style="fill: none;stroke: #a2a9ac;stroke-miterlimit: 10;stroke-width: 1.99094726664172px"></line><g><g><g><path d="M470.2,31.2H441.5V59a6,6,0,0,1-6.1,6h-8.9a6.1,6.1,0,0,1-6.1-6V31.2H416V59a10.5,10.5,0,0,0,10.5,10.4h8.9A10.5,10.5,0,0,0,445.9,59V35.5h24a6.1,6.1,0,0,1,6.1,6.1v8.7a6.1,6.1,0,0,1-6.1,6.1h-19v13h4.3V61h15a10.5,10.5,0,0,0,10.5-10.4V41.7A10.5,10.5,0,0,0,470.2,31.2Z" style="fill: #207ae5"></path><path d="M425.9,43.7h4.5v4.6a.4.4,0,0,0,.4.3h.4a.3.3,0,0,0,.3-.3V43.7h4.6c.2,0,.3-.2.3-.4v-.4a.3.3,0,0,0-.3-.3h-4.6V38.1c0-.2-.1-.4-.3-.4h-.4a.4.4,0,0,0-.4.4v4.5h-4.5a.3.3,0,0,0-.3.3v.4C425.6,43.5,425.7,43.7,425.9,43.7Z" style="fill: #a2a9ac"></path></g><g><path d="M480.7,28.6h-1v-.4h2.4v.4h-.9V31h-.5Z" style="fill: #a2a9ac"></path><path d="M485.1,31V29.1l-.9,1.6h-.3l-.9-1.5V31h-.5V28.2h.4l1.2,1.9,1.1-1.9h.4V31Z" style="fill: #a2a9ac"></path></g></g><g><path d="M416.3,24.3l4.8-13.9H423l4.8,13.9h-1.5l-1.4-3.9h-5.6l-1.4,3.9Zm3.3-5.3h4.9l-2.4-7.3Z" style="fill: #a2a9ac"></path><path d="M429.9,24.3V14.2h1.2l.3,1.1a6.7,6.7,0,0,1,1.7-.8,4.5,4.5,0,0,1,2-.4,3.4,3.4,0,0,1,1.8.4,6.4,6.4,0,0,1,1,1.3,4.7,4.7,0,0,1,.3,1.7v6.8h-1.5V17.6a2,2,0,0,0-.3-1.1,1.8,1.8,0,0,0-.7-.8,2,2,0,0,0-1.1-.3h-1.2l-1,.4-1,.5v7.9Z" style="fill: #a2a9ac"></path></g><g><path d="M421.7,91.2a7.8,7.8,0,0,1-2.2-.3,3.1,3.1,0,0,1-1.5-1,5,5,0,0,1-.9-2.2,17.3,17.3,0,0,1-.3-3.6,16.9,16.9,0,0,1,.3-3.5,5.1,5.1,0,0,1,.9-2.1,2.9,2.9,0,0,1,1.6-1.1,7.3,7.3,0,0,1,2.2-.3h1.3l1.5.2,1.2.3v1.1h-3.7l-1.8.2a3.1,3.1,0,0,0-1.1.9,5.4,5.4,0,0,0-.7,1.7,21.9,21.9,0,0,0-.2,2.9,20.7,20.7,0,0,0,.2,2.9,5.4,5.4,0,0,0,.6,1.8,2,2,0,0,0,1.2.8,4,4,0,0,0,1.7.3h2.3l1.5-.2v1.1l-1.2.3h-2.9Z" style="fill: #a2a9ac"></path><path d="M431.9,91.2,430,91a2.9,2.9,0,0,1-1.3-.8,3.5,3.5,0,0,1-.9-1.6,17.2,17.2,0,0,1-.2-2.6,18.4,18.4,0,0,1,.2-2.6,3.5,3.5,0,0,1,.9-1.6,2.7,2.7,0,0,1,1.3-.7,5.8,5.8,0,0,1,1.9-.2,6.2,6.2,0,0,1,2,.2,2.2,2.2,0,0,1,1.3.8,3.2,3.2,0,0,1,.9,1.5,18.4,18.4,0,0,1,.2,2.6,17.2,17.2,0,0,1-.2,2.6,3.5,3.5,0,0,1-.9,1.6,2.9,2.9,0,0,1-1.3.8Zm0-1.2,1.3-.2a2,2,0,0,0,.9-.5,3.3,3.3,0,0,0,.5-1.2,6.2,6.2,0,0,0,.2-2.1,6.2,6.2,0,0,0-.2-2.1,3.3,3.3,0,0,0-.5-1.2l-.9-.5h-2.5a1.9,1.9,0,0,0-.9.5,3.3,3.3,0,0,0-.5,1.2,6.2,6.2,0,0,0-.2,2.1,6.2,6.2,0,0,0,.2,2.1,3.3,3.3,0,0,0,.5,1.2,1.3,1.3,0,0,0,.9.5Z" style="fill: #a2a9ac"></path><path d="M438.8,91.1V81H440l.3,1.1a5.6,5.6,0,0,1,1.7-.9,4.9,4.9,0,0,1,2.1-.4,3.8,3.8,0,0,1,1.6.4,2.6,2.6,0,0,1,1,1.1l1.2-.7,1.4-.5,1.5-.3a3.5,3.5,0,0,1,1.8.5,2.3,2.3,0,0,1,1,1.2,3.4,3.4,0,0,1,.4,1.8v6.8h-1.5V84.4a2.7,2.7,0,0,0-.3-1.2,1.6,1.6,0,0,0-.7-.7,2.1,2.1,0,0,0-1.2-.3l-1.7.3a8,8,0,0,0-1.6.8c0,.2.1.3.1.5v7.3h-1.4V84.4a2.7,2.7,0,0,0-.3-1.2,1.6,1.6,0,0,0-.7-.7,2.1,2.1,0,0,0-1.2-.3h-1.1l-1.1.3-1,.6v7.9Z" style="fill: #a2a9ac"></path><path d="M456.8,95.6V81H458l.3,1,.8-.5,1.2-.5h1.3a2.7,2.7,0,0,1,1.6.4,3.2,3.2,0,0,1,1.2,1.1,4.3,4.3,0,0,1,.6,1.7,11.1,11.1,0,0,1,.2,1.9,8.5,8.5,0,0,1-.4,2.9,3.7,3.7,0,0,1-1.2,1.7,3.2,3.2,0,0,1-2,.6,4.7,4.7,0,0,1-1.7-.3,4.6,4.6,0,0,1-1.6-.7v5.4Zm4.4-5.7a2.4,2.4,0,0,0,1.2-.3,2.7,2.7,0,0,0,.9-1.2,5.5,5.5,0,0,0,.4-2.4,5.3,5.3,0,0,0-.4-2.3,2.3,2.3,0,0,0-.9-1.2,1.9,1.9,0,0,0-1.2-.4,3.8,3.8,0,0,0-1.6.3,3.9,3.9,0,0,0-1.3.6v6.1a3.5,3.5,0,0,0,1.4.6A3.9,3.9,0,0,0,461.2,89.9Z" style="fill: #a2a9ac"></path><path d="M469.7,91.2a2.5,2.5,0,0,1-1.9-.7,2.1,2.1,0,0,1-.7-1.8v-.8a2.6,2.6,0,0,1,.8-1.9,3.3,3.3,0,0,1,2.4-.7h3.4V84a3,3,0,0,0-.2-1,1.4,1.4,0,0,0-.8-.7,3.5,3.5,0,0,0-1.6-.3h-3.2v-.9l1.6-.2h2.1a5.6,5.6,0,0,1,2,.3,4,4,0,0,1,1.2,1,3.6,3.6,0,0,1,.4,1.9v7.1H474l-.3-1.2-.4.3-1,.4L471,91Zm.6-1.1h.8l.8-.2.9-.3.6-.2h.3V86l-3.1.2a2.1,2.1,0,0,0-1.5.5,1.7,1.7,0,0,0-.5,1.3v.4a1.7,1.7,0,0,0,.3,1,1,1,0,0,0,.6.5Z" style="fill: #a2a9ac"></path><path d="M478,91.1V81h1.2l.3,1.1,1.7-.9a4.5,4.5,0,0,1,2-.4,3.5,3.5,0,0,1,1.8.5,2.9,2.9,0,0,1,1,1.2,5.1,5.1,0,0,1,.3,1.7v6.9h-1.5V84.4a2.7,2.7,0,0,0-.3-1.2,1.2,1.2,0,0,0-.7-.7,2,2,0,0,0-1.1-.3h-1.2l-1,.3-1,.6v7.9Z" style="fill: #a2a9ac"></path><path d="M491.8,95.6l1.3-4.5-1-.2a3.2,3.2,0,0,1-.9-.8,2.6,2.6,0,0,1-.7-1.4L488,81h1.6l2.3,7.4a1.9,1.9,0,0,0,.4.9l.5.4h.6L496,81h1.5l-3.6,12.7-.9,1.9Z" style="fill: #a2a9ac"></path></g></g></g></g></g></svg> 